PathFileType	4	(X/Y/Z)	s08c0201.trc
DataRate	CameraRate	NumFrames	NumMarkers	Units	OrigDataRate	OrigDataStartFrame	OrigNumFrames
200	200	5	50	mm	200	750	2000
Frame#	Time	racr			lacr			c7			jug			rlel			rdr			llel			ldr			s2			lic			ric			lasi			rasi			rpsi			lpsi			rgt			lgt			rth1			rth2			rth3			rth4			rlfc			rmfc			rsh1			rsh2			rsh3			rsh4			rlmal			rmmal			rcal			rtoe			rmt5			lth1			lth2			lth4			lth3			llfc			lmfc			llmal			lmmal			lcal			lmt5			lsh1			lsh2			lsh3			lsh4			ltoe			SBIKE			LBIKE			RBIKE			
		X1	Y1	Z1	X2	Y2	Z2	X3	Y3	Z3	X4	Y4	Z4	X5	Y5	Z5	X6	Y6	Z6	X7	Y7	Z7	X8	Y8	Z8	X9	Y9	Z9	X10	Y10	Z10	X11	Y11	Z11	X12	Y12	Z12	X13	Y13	Z13	X14	Y14	Z14	X15	Y15	Z15	X16	Y16	Z16	X17	Y17	Z17	X18	Y18	Z18	X19	Y19	Z19	X20	Y20	Z20	X21	Y21	Z21	X22	Y22	Z22	X23	Y23	Z23	X24	Y24	Z24	X25	Y25	Z25	X26	Y26	Z26	X27	Y27	Z27	X28	Y28	Z28	X29	Y29	Z29	X30	Y30	Z30	X31	Y31	Z31	X32	Y32	Z32	X33	Y33	Z33	X34	Y34	Z34	X35	Y35	Z35	X36	Y36	Z36	X37	Y37	Z37	X38	Y38	Z38	X39	Y39	Z39	X40	Y40	Z40	X41	Y41	Z41	X42	Y42	Z42	X43	Y43	Z43	X44	Y44	Z44	X45	Y45	Z45	X46	Y46	Z46	X47	Y47	Z47	X48	Y48	Z48	X49	Y49	Z49	X50	Y50	Z50	
750	3.7500	564.899748	1354.753794	-89.320185	569.834987	1344.033572	-436.270926	550.734818	1426.777116	-257.103606	518.294507	1266.791137	-265.170326	570.181798	1118.405541	51.686327	772.944977	935.488565	-68.630927	552.300668	1083.138875	-560.358760	755.912271	930.874859	-449.179477	0.676039	1197.431179	-255.124253	152.825234	1205.708950	-414.034337	158.251668	1214.611803	-98.260387	181.934447	1155.652235	-379.639746	196.287404	1169.416084	-137.530618	30.426344	1240.457261	-208.017797	28.474898	1242.221515	-303.672616	118.027183	1107.065343	-62.806514	101.146436	1073.966044	-436.470953	262.882697	1010.499981	-74.798819	345.368620	980.309673	-88.316337	399.843960	912.208414	-99.366685	363.796420	1009.081106	-103.392296	472.403490	832.615704	-126.814511	441.081552	818.105235	-231.739329	367.907540	764.915427	-82.778586	320.069112	688.899040	-91.183959	244.576731	648.222692	-84.616023	339.748797	668.718032	-120.061382	149.572953	573.448993	-76.133648	172.701615	572.242106	-165.347903	73.461607	601.316144	-119.552393	276.015680	383.833725	-110.689856	192.974822	427.644123	-44.754803	178.354936	956.143202	-447.878715	243.825038	898.331774	-446.426577	274.030162	918.180907	-439.687002	271.206988	813.924266	-443.485734	328.481836	699.013720	-422.231231	330.801133	676.810257	-323.375961	286.932801	282.085607	-413.085008	328.979641	314.684657	-344.419317	224.685696	266.176191	-373.593862	426.722577	187.161182	-425.092596	309.083248	569.464490	-444.329280	325.626602	487.184645	-428.728536	298.944089	402.698764	-425.226472	348.554313	489.884192	-395.785175	509.914179	213.337425	-356.147684	-139.288075	941.796796	-232.888408	17.173572	79.390707	-428.565610	17.115390	80.279473	-30.172738	
751	3.7550	564.515386	1354.189411	-86.508756	571.376365	1344.695888	-432.631812	550.493439	1426.327531	-253.216626	519.863424	1266.032391	-262.221847	570.341345	1117.263696	53.094550	772.417603	935.602587	-69.823037	553.813758	1085.613126	-559.752784	756.221294	931.506534	-450.195708	0.424514	1198.460231	-257.312194	154.116893	1206.110402	-414.829340	155.959515	1216.110013	-99.839180	182.135911	1155.096604	-380.649078	195.149393	1171.100222	-138.048959	28.780384	1241.710908	-210.288668	28.591466	1243.076716	-305.909363	116.410574	1110.112436	-63.646934	99.967256	1073.810134	-437.218278	262.870905	1015.989761	-75.290193	345.987039	987.329589	-88.698606	401.643946	920.528504	-99.515869	364.487314	1016.860606	-103.064513	476.224930	841.628281	-126.150777	445.508610	826.596845	-231.759522	371.717246	773.819066	-83.609394	324.512164	697.549012	-91.375139	249.298171	656.513537	-84.911545	344.310825	677.268052	-119.930246	154.545820	580.785254	-76.643906	177.347850	579.871259	-165.999313	77.249329	607.225996	-119.232300	284.284688	394.125920	-111.010917	200.722886	435.969857	-45.131089	174.003720	954.371566	-448.696180	238.001246	894.916466	-447.447215	268.506664	913.959593	-440.629808	263.261385	809.866297	-444.555034	317.645804	693.319462	-423.247963	319.875300	671.177569	-324.248595	279.939813	276.063775	-412.998836	322.364130	308.653549	-344.650097	218.285994	261.398370	-373.261102	419.076920	179.319172	-424.951495	298.795013	563.531135	-444.894214	316.390558	481.369866	-429.463628	290.645592	396.596844	-425.697051	339.278090	484.272522	-396.291956	502.741520	204.309808	-356.096643	-139.428494	941.784585	-232.848065	17.165770	79.393892	-428.583457	17.114922	80.307169	-30.221337	
752	3.7600	564.145647	1353.623217	-83.718709	572.845637	1345.060808	-427.948474	550.489949	1426.323613	-249.831021	520.907141	1265.827824	-258.809776	570.439848	1116.373120	54.402623	772.050392	935.635490	-70.794317	555.266781	1087.953596	-559.087959	756.517907	931.945996	-450.829119	0.051341	1199.600372	-259.267004	155.366521	1206.381387	-415.400643	154.362650	1217.488807	-100.920545	182.263489	1154.401542	-381.754097	193.972412	1172.703480	-138.469214	27.298127	1242.864600	-212.068702	28.706865	1243.867538	-307.952883	114.853313	1113.431183	-64.087208	98.561472	1073.679152	-437.881705	262.730075	1021.503654	-75.472733	346.740780	994.185785	-89.164611	403.648817	928.817738	-99.039853	364.747534	1024.671946	-102.290697	480.082803	850.824075	-125.802283	449.714478	835.108079	-231.881400	375.800619	782.455252	-84.044258	328.701405	705.791364	-91.534030	254.060471	664.454141	-84.929833	349.027681	685.469146	-119.652593	159.690582	587.586972	-77.049272	182.915532	587.913336	-165.711988	81.686441	612.643265	-119.456073	293.182894	403.646864	-111.714136	209.266604	444.313371	-45.331116	169.625154	952.939350	-449.641414	232.142924	891.797897	-448.626371	263.056132	910.103651	-441.803801	255.174729	806.022440	-445.502023	305.090518	688.040261	-425.112504	310.004033	664.615236	-321.038008	272.439789	270.609617	-412.902458	315.380892	302.986002	-344.935750	211.557826	257.077964	-372.964522	410.946335	171.760994	-424.782355	287.921835	558.114609	-445.751768	306.585509	476.066701	-430.278675	281.773869	391.028703	-426.159201	329.740276	479.272181	-397.296306	494.983924	195.582084	-356.035752	-139.465428	941.787356	-233.020316	17.149458	79.424109	-428.596828	17.101049	80.342048	-30.233182	
753	3.7650	563.697341	1352.981618	-80.902098	574.434748	1345.453801	-424.080039	550.403557	1426.290859	-246.448128	522.057266	1265.584489	-255.695439	570.890473	1115.238988	55.685062	771.739582	935.588812	-71.572706	556.845660	1090.346388	-558.427459	756.670081	932.035299	-450.583834	0.095966	1199.977695	-261.221816	156.759863	1206.617172	-416.127387	152.742484	1218.838885	-102.179356	182.900997	1153.929318	-384.273180	192.813283	1174.273479	-138.918057	26.020793	1244.180817	-213.890670	29.119327	1244.496276	-310.063754	113.201507	1116.396747	-64.612035	96.970178	1073.562581	-438.497929	262.505778	1026.978100	-75.558158	347.095850	1001.128694	-88.986441	404.657765	936.908171	-98.646166	364.457462	1032.184220	-101.958385	483.714749	859.835322	-125.247953	453.722502	843.532186	-231.511460	380.391304	791.045752	-83.731473	333.282911	713.928993	-92.058295	258.846952	672.240652	-85.045145	355.421443	693.156383	-118.927039	165.198292	593.891077	-77.384100	188.275103	594.014411	-165.694421	86.791347	617.407168	-120.010138	302.896179	413.182810	-112.555390	217.749276	451.789875	-45.618876	165.256266	951.517969	-450.606749	226.350241	888.857137	-449.932177	257.694709	906.458144	-443.107086	247.447984	802.523720	-446.852217	294.280372	683.030110	-425.981340	299.272399	659.835244	-321.918958	264.523420	265.624704	-412.846070	308.130411	298.059183	-345.360550	204.320997	253.234905	-372.648420	402.261802	164.899505	-424.611454	276.652042	553.058534	-446.425170	296.367378	471.227306	-431.155306	272.278859	385.981648	-426.734987	319.863387	474.633975	-398.563977	486.975651	187.515278	-356.037451	-139.550420	941.795786	-233.031203	17.140161	79.445254	-428.594258	17.069300	80.363657	-30.243898	
754	3.7700	563.217832	1352.250030	-78.099323	575.859650	1345.800646	-420.130668	550.310551	1426.159194	-243.033591	523.032501	1265.282080	-252.568746	571.411858	1114.143717	56.890012	771.498257	935.412434	-72.194106	558.306299	1092.495236	-557.655104	757.001533	932.302241	-451.115867	0.221683	1200.433539	-263.057393	158.137201	1206.603187	-416.541300	151.372982	1220.066145	-103.416333	183.070610	1152.846653	-385.171570	191.692509	1175.728178	-139.442982	25.413955	1245.315001	-215.854685	29.288879	1245.261749	-311.812269	111.700200	1119.300916	-64.950094	95.258381	1073.386398	-439.013370	262.168923	1032.424192	-75.565338	347.113014	1008.072488	-89.084596	406.058131	944.839783	-98.206651	363.503539	1038.381754	-103.282818	486.885324	868.262858	-124.417234	457.440506	852.923524	-233.776896	384.459734	799.042438	-83.610947	338.132995	721.592427	-91.594428	263.518767	679.308244	-84.478206	360.078135	700.634096	-118.485598	171.101280	599.411035	-77.628534	194.249170	600.229260	-165.705547	91.691666	621.060262	-120.427405	312.108536	421.515999	-112.974466	226.205333	458.359884	-45.985349	161.011815	950.174063	-451.733090	220.622780	886.196923	-451.345919	252.606644	903.025931	-444.523313	239.830919	799.481206	-448.345097	283.595793	678.409077	-426.766938	288.734681	655.248787	-322.783108	256.223657	261.048971	-412.885699	300.252807	293.437485	-345.642205	196.594431	249.779877	-372.418156	393.296163	158.721574	-424.473123	265.276856	548.457196	-447.509326	285.799555	467.036377	-432.491724	262.316452	381.457287	-427.329236	309.880851	470.433938	-400.172379	478.453723	180.237712	-356.028136	-139.610458	941.809458	-233.037074	17.119244	79.441199	-428.617214	17.069549	80.388543	-30.256396	
